# xmcd
#
# Track frame offsets: 
#        150
#        13065
#        26052
#        38352
#        53120
#        64952
#        75412
#        89087
#        103167
#        114525
#        125255
#        138280
#        151295
#        164787
#        177147
#        190195
#        201162
#        214247
#        227015
#        240957
#        253685
#        266612
#        280507
#        292130
#        304500
#        318080
#        332162
#
# Disc length: 4579 seconds
#
# Revision: 3
# Processed by: cddbd v1.5.2PL0 Copyright (c) Steve Scherf et al.
# Submitted via: ExactAudioCopyFreeDBPlugin 1.0
#
DISCID=7c11e11b
DTITLE=Louis Jordan - Let the Good Times Roll:  The Complete US Decca 
DTITLE=Recordings, 1938-1954 [Bear Family box set]
DYEAR=1992
DGENRE=Rhythm and Blues
TTITLE0=Buzz Me
TTITLE1=They Raided the House
TTITLE2=Caldonia Boogie
TTITLE3=Somebody Done Changed the Lock on My Door
TTITLE4=How Long Must I Wait for You
TTITLE5=Don't Worry 'Bout That Mule (unissued take)
TTITLE6=Salt Pork, West Virginia
TTITLE7=Paper Boy
TTITLE8=Don't Worry 'Bout That Mule
TTITLE9=Reconversion Blues
TTITLE10=It's So Easy
TTITLE11=Beware
TTITLE12=Don't Let the Sun Catch You Cryin'
TTITLE13=Choo-Choo Ch' Boogie
TTITLE14=Ain't That Just Like a Woman
TTITLE15=That Chick's Too Young to Fry
TTITLE16=No Sale
TTITLE17=If It's Love You Want Baby, That's Me
TTITLE18=Ain't Nobody Here But Us Chickens
TTITLE19=Let the Good Times Roll
TTITLE20=All for the Love of Lil
TTITLE21=Texas and Pacific
TTITLE22=Jack, You're Dead
TTITLE23=Reet, Petite and Gone
TTITLE24=Sure, Had a Wonderful Time
TTITLE25=I Know What You're Puttin' Down
TTITLE26=Open the Door Richard (unissued take)
EXTD=YEAR: 1992
EXTT0=
EXTT1=
EXTT2=
EXTT3=
EXTT4=
EXTT5=
EXTT6=
EXTT7=
EXTT8=
EXTT9=
EXTT10=
EXTT11=
EXTT12=
EXTT13=
EXTT14=
EXTT15=
EXTT16=
EXTT17=
EXTT18=
EXTT19=
EXTT20=
EXTT21=
EXTT22=
EXTT23=
EXTT24=
EXTT25=
EXTT26=
PLAYORDER=
